<?xml version="1.0" encoding="UTF-8" standalone="no" ?>
<!DOCTYPE svg PUBLIC "-//W3C//DTD SVG 1.1//EN" "http://www.w3.org/Graphics/SVG/1.1/DTD/svg11.dtd">
<svg xmlns="http://www.w3.org/2000/svg" xmlns:xlink="http://www.w3.org/1999/xlink" version="1.1" viewBox="0 0 1080 1080" xml:space="preserve">
<desc>Created with Fabric.js 5.2.4</desc>
<defs>
</defs>
<g transform="matrix(1 0 0 1 540 540)" id="e9595543-46a8-4cb7-84a6-a8d8838ed02e"  >
<rect style="stroke: none; stroke-width: 1; stroke-dasharray: none; stroke-linecap: butt; stroke-dashoffset: 0; stroke-linejoin: miter; stroke-miterlimit: 4; fill: rgb(255,255,255); fill-rule: nonzero; opacity: 1; visibility: hidden;" vector-effect="non-scaling-stroke"  x="-540" y="-540" rx="0" ry="0" width="1080" height="1080" />
</g>
<g transform="matrix(1 0 0 1 540 540)" id="ab5b6ab6-5dfc-460e-a73b-d57a9a5a96de"  >
</g>
<g transform="matrix(8.79 0 0 8.79 540 540)"  >
<path style="stroke: none; stroke-width: 1; stroke-dasharray: none; stroke-linecap: butt; stroke-dashoffset: 0; stroke-linejoin: miter; stroke-miterlimit: 4; fill: rgb(255,255,255); fill-rule: evenodd; opacity: 1;"  transform=" translate(-61.44, -45.01)" d="M 0 8.62 C 17.28 -2.040000000000001 34.96 -3.6800000000000015 53.26 8.62 L 53.26 88.26 C 40.61 78.89 22.229999999999997 80.02000000000001 0 88.26 L 0 8.62 z M 59.09 8.819999999999999 L 64.37 8.819999999999999 C 65.45 8.819999999999999 66.33 9.7 66.33 10.769999999999998 L 66.33 88.06 C 66.33 89.14 65.45 90.02 64.37 90.02 L 59.09 90.02 C 58.00979554058251 90.01453050534204 57.13546949465797 89.1402044594175 57.13 88.06 L 57.13 10.77 C 57.14 9.7 58.02 8.82 59.09 8.82 z M 122.88 8.62 C 105.6 -2.040000000000001 87.91 -3.6800000000000015 69.60999999999999 8.62 L 69.60999999999999 88.26 C 82.25999999999999 78.89 100.63999999999999 80.02000000000001 122.88 88.26 L 122.88 8.62 z" stroke-linecap="round" />
</g>
</svg>
